<?xml version="1.0" encoding="utf-8"?>
<!-- Generator: Adobe Illustrator 16.0.0, SVG Export Plug-In . SVG Version: 6.00 Build 0)  -->
<!DOCTYPE svg PUBLIC "-//W3C//DTD SVG 1.1//EN" "http://www.w3.org/Graphics/SVG/1.1/DTD/svg11.dtd">
<svg xmlns:xlink="http://www.w3.org/1999/xlink" version="1.1" id="Layer_1" xmlns="http://www.w3.org/2000/svg" x="0px" y="0px"
	 width="88.175px" height="100px" viewBox="204.491 185.264 88.175 100" enable-background="new 204.491 185.264 88.175 100"
	 xml:space="preserve">
<polygon fill="#E44D26" points="212.516,275.268 204.491,185.264 292.666,185.264 284.633,275.253 248.524,285.264 "/>
<polygon fill="#F16529" points="248.578,277.612 277.756,269.523 284.621,192.623 248.578,192.623 "/>
<polygon fill="#EBEBEB" points="248.578,226.004 233.971,226.004 232.962,214.701 248.578,214.701 248.578,203.662 248.54,203.662 
	220.899,203.662 221.163,206.623 223.876,237.043 248.578,237.043 "/>
<polygon fill="#EBEBEB" points="248.578,254.673 248.53,254.686 236.236,251.365 235.45,242.562 229.477,242.562 224.369,242.562 
	225.916,259.895 248.527,266.171 248.578,266.157 "/>
<polygon fill="#FFFFFF" points="248.54,226.004 248.54,237.043 262.133,237.043 260.852,251.359 248.54,254.682 248.54,266.166 
	271.17,259.895 271.336,258.029 273.93,228.968 274.199,226.004 271.225,226.004 "/>
<polygon fill="#FFFFFF" points="248.54,203.662 248.54,210.518 248.54,214.674 248.54,214.701 275.168,214.701 275.168,214.701 
	275.204,214.701 275.426,212.219 275.929,206.623 276.192,203.662 "/>
</svg>
