<?xml version="1.0" encoding="utf-8"?>
<!-- Generator: Adobe Illustrator 21.1.0, SVG Export Plug-In . SVG Version: 6.00 Build 0)  -->
<svg xmlns:xlink="http://www.w3.org/1999/xlink" version="1.1" id="Layer_1" xmlns="http://www.w3.org/2000/svg" x="0px" y="0px"
	 viewBox="0 0 719.9 1280" style="enable-background:new 0 0 719.9 1280;" xml:space="preserve">
<style type="text/css">
	.st0{fill:#FFFFFF;}
</style>
<g>
	<circle class="st0" cx="152" cy="1069.7" r="3.5"/>
</g>
<g>
	<circle class="st0" cx="245.7" cy="1124" r="3.4"/>
</g>
<g>
	<circle class="st0" cx="156.8" cy="1176.9" r="3.4"/>
</g>
<g>
	<circle class="st0" cx="196.4" cy="1196.2" r="2.4"/>
</g>
<g>
	<circle class="st0" cx="195.7" cy="1241.6" r="1.2"/>
</g>
<g>
	<circle class="st0" cx="72" cy="1054.8" r="1.2"/>
</g>
<g>
	<circle class="st0" cx="88.5" cy="1064.9" r="1.2"/>
</g>
<g>
	<circle class="st0" cx="34.5" cy="1097.3" r="1.2"/>
</g>
<g>
	<circle class="st0" cx="153.4" cy="957.8" r="1.2"/>
</g>
<g>
	<circle class="st0" cx="380.5" cy="1074.4" r="1.2"/>
</g>
<g>
	<circle class="st0" cx="330" cy="1192.6" r="1.2"/>
</g>
<g>
	<circle class="st0" cx="42.5" cy="1231.6" r="1.2"/>
</g>
<g>
	<circle class="st0" cx="160.2" cy="1203.6" r="2.4"/>
</g>
<g>
	<circle class="st0" cx="55.1" cy="1129.8" r="2.4"/>
</g>
<g>
	<circle class="st0" cx="249.1" cy="1023.2" r="2.4"/>
</g>
<g>
	
		<ellipse transform="matrix(0.6612 -0.7502 0.7502 0.6612 -458.4079 662.2176)" class="st0" cx="504" cy="838.6" rx="3.5" ry="3.5"/>
</g>
<g>
	
		<ellipse transform="matrix(0.6612 -0.7502 0.7502 0.6612 -523.8464 722.7661)" class="st0" cx="538.3" cy="941.4" rx="3.4" ry="3.4"/>
</g>
<g>
	
		<ellipse transform="matrix(0.6612 -0.7502 0.7502 0.6612 -544.0041 640.0025)" class="st0" cx="436.6" cy="922.3" rx="3.4" ry="3.4"/>
</g>
<g>
	
		<ellipse transform="matrix(0.6612 -0.7502 0.7502 0.6612 -568.7479 666.5125)" class="st0" cx="453.6" cy="963" rx="2.4" ry="2.4"/>
</g>
<g>
	
		<ellipse transform="matrix(0.6612 -0.7502 0.7502 0.6612 -604.3292 654.9872)" class="st0" cx="423" cy="996.6" rx="1.2" ry="1.2"/>
</g>
<g>
	
		<ellipse transform="matrix(0.6612 -0.7502 0.7502 0.6612 -427.4437 602.8563)" class="st0" cx="453.7" cy="774.7" rx="1.2" ry="1.2"/>
</g>
<g>
	
		<ellipse transform="matrix(0.6612 -0.7502 0.7502 0.6612 -457.2939 671.7094)" class="st0" cx="515" cy="842.2" rx="1.2" ry="1.2"/>
</g>
<g>
	
		<ellipse transform="matrix(0.6612 -0.7502 0.7502 0.6612 -451.7893 563.0828)" class="st0" cx="397.5" cy="781.7" rx="1.2" ry="1.2"/>
</g>
<g>
	
		<ellipse transform="matrix(0.6612 -0.7502 0.7502 0.6612 -370.7491 690.3459)" class="st0" cx="579" cy="755.7" rx="1.2" ry="1.2"/>
</g>
<g>
	
		<ellipse transform="matrix(0.6612 -0.7502 0.7502 0.6612 -517.4662 840.8407)" class="st0" cx="672.2" cy="993.3" rx="1.2" ry="1.2"/>
</g>
<g>
	
		<ellipse transform="matrix(0.6612 -0.7502 0.7502 0.6612 -598.1955 772.4896)" class="st0" cx="556.2" cy="1048.5" rx="1.2" ry="1.2"/>
</g>
<g>
	
		<ellipse transform="matrix(0.6612 -0.7502 0.7502 0.6612 -559.3779 536.8803)" class="st0" cx="314.7" cy="887.8" rx="1.2" ry="1.2"/>
</g>
<g>
	
		<ellipse transform="matrix(0.6612 -0.7502 0.7502 0.6612 -565.8266 636.2346)" class="st0" cx="421.5" cy="944.6" rx="2.4" ry="2.4"/>
</g>
<g>
	
		<ellipse transform="matrix(0.6612 -0.7502 0.7502 0.6612 -482.3531 571.4861)" class="st0" cx="391.6" cy="819.8" rx="2.4" ry="2.4"/>
</g>
<g>
	
		<ellipse transform="matrix(0.6612 -0.7502 0.7502 0.6612 -440.0104 718.3363)" class="st0" cx="575.3" cy="846.3" rx="2.4" ry="2.4"/>
</g>
<g>
	
		<ellipse transform="matrix(0.2032 -0.9791 0.9791 0.2032 -523.5995 804.9956)" class="st0" cx="232.8" cy="724.2" rx="3.5" ry="3.5"/>
</g>
<g>
	
		<ellipse transform="matrix(0.2032 -0.9791 0.9791 0.2032 305.5502 678.4632)" class="st0" cx="569.6" cy="151.5" rx="3.5" ry="3.5"/>
</g>
<g>
	
		<ellipse transform="matrix(0.2032 -0.9791 0.9791 0.2032 130.8968 463.8689)" class="st0" cx="350.5" cy="151.5" rx="3.5" ry="3.5"/>
</g>
<g>
	
		<ellipse transform="matrix(0.2032 -0.9791 0.9791 0.2032 -220.6731 1062.5051)" class="st0" cx="542.5" cy="666.8" rx="3.5" ry="3.5"/>
</g>
<g>
	
		<ellipse transform="matrix(0.2032 -0.9791 0.9791 0.2032 -615.5978 816.1609)" class="st0" cx="193.7" cy="786.3" rx="3.4" ry="3.4"/>
</g>
<g>
	
		<ellipse transform="matrix(0.2032 -0.9791 0.9791 0.2032 -552.5254 677.9536)" class="st0" cx="140.3" cy="678.5" rx="3.4" ry="3.4"/>
</g>
<g>
	
		<ellipse transform="matrix(0.2032 -0.9791 0.9791 0.2032 -646.8773 688.8403)" class="st0" cx="99.8" cy="741.9" rx="2.4" ry="2.4"/>
</g>
<g>
	
		<ellipse transform="matrix(0.2032 -0.9791 0.9791 0.2032 -642.6393 1515.5253)" class="st0" cx="609.9" cy="1152.6" rx="2.4" ry="2.4"/>
</g>
<g>
	<ellipse transform="matrix(0.2032 -0.9791 0.9791 0.2032 -672.4492 637.6149)" class="st0" cx="55.5" cy="732" rx="1.2" ry="1.2"/>
</g>
<g>
	
		<ellipse transform="matrix(0.2032 -0.9791 0.9791 0.2032 -425.3067 775.043)" class="st0" cx="263.6" cy="648.8" rx="1.2" ry="1.2"/>
</g>
<g>
	
		<ellipse transform="matrix(0.2032 -0.9791 0.9791 0.2032 -449.5981 773.4786)" class="st0" cx="250.4" cy="663" rx="1.2" ry="1.2"/>
</g>
<g>
	
		<ellipse transform="matrix(0.2032 -0.9791 0.9791 0.2032 4.5322 1131.1941)" class="st0" cx="697.3" cy="562.8" rx="1.2" ry="1.2"/>
</g>
<g>
	
		<ellipse transform="matrix(0.2032 -0.9791 0.9791 0.2032 257.8144 885.2177)" class="st0" cx="672.8" cy="284.2" rx="1.2" ry="1.2"/>
</g>
<g>
	
		<ellipse transform="matrix(0.2032 -0.9791 0.9791 0.2032 68.2255 451.5696)" class="st0" cx="311.6" cy="183.9" rx="1.2" ry="1.2"/>
</g>
<g>
	
		<ellipse transform="matrix(0.2032 -0.9791 0.9791 0.2032 247.9964 686.3394)" class="st0" cx="545.7" cy="190.8" rx="1.2" ry="1.2"/>
</g>
<g>
	
		<ellipse transform="matrix(0.2032 -0.9791 0.9791 0.2032 164.8027 388.8798)" class="st0" cx="321.3" cy="93.2" rx="1.2" ry="1.2"/>
</g>
<g>
	<ellipse transform="matrix(0.2032 -0.9791 0.9791 0.2032 8.6263 92.5527)" class="st0" cx="61.2" cy="41" rx="1.2" ry="1.2"/>
</g>
<g>
	<ellipse transform="matrix(0.2032 -0.9791 0.9791 0.2032 497.3426 687.2566)" class="st0" cx="670.9" cy="38" rx="1.2" ry="1.2"/>
</g>
<g>
	<ellipse transform="matrix(0.2032 -0.9791 0.9791 0.2032 380.8818 830.9852)" class="st0" cx="701" cy="181.5" rx="1.2" ry="1.2"/>
</g>
<g>
	<ellipse transform="matrix(0.2032 -0.9791 0.9791 0.2032 234.0821 803.7021)" class="st0" cx="610.9" cy="258" rx="1.2" ry="1.2"/>
</g>
<g>
	<ellipse transform="matrix(0.2032 -0.9791 0.9791 0.2032 92.47 613.6249)" class="st0" cx="423.3" cy="250" rx="1.2" ry="1.2"/>
</g>
<g>
	
		<ellipse transform="matrix(0.2032 -0.9791 0.9791 0.2032 92.9628 650.7433)" class="st0" cx="446.3" cy="268.3" rx="1.2" ry="1.2"/>
</g>
<g>
	
		<ellipse transform="matrix(0.2032 -0.9791 0.9791 0.2032 263.3966 535.489)" class="st0" cx="460.7" cy="105.9" rx="1.2" ry="1.2"/>
</g>
<g>
	<ellipse transform="matrix(0.2032 -0.9791 0.9791 0.2032 -22.7481 604.3515)" class="st0" cx="360" cy="316.2" rx="1.2" ry="1.2"/>
</g>
<g>
	
		<ellipse transform="matrix(0.2032 -0.9791 0.9791 0.2032 159.0989 618.2889)" class="st0" cx="459.4" cy="211.4" rx="1.2" ry="1.2"/>
</g>
<g>
	<ellipse transform="matrix(0.2032 -0.9791 0.9791 0.2032 134.0131 916.695)" class="st0" cx="630.2" cy="376" rx="1.2" ry="1.2"/>
</g>
<g>
	
		<ellipse transform="matrix(0.2032 -0.9791 0.9791 0.2032 -407.9516 705.673)" class="st0" cx="229.6" cy="603.5" rx="1.2" ry="1.2"/>
</g>
<g>
	
		<ellipse transform="matrix(0.2032 -0.9791 0.9791 0.2032 -460.1966 931.1415)" class="st0" cx="342" cy="748.3" rx="1.2" ry="1.2"/>
</g>
<g>
	
		<ellipse transform="matrix(0.2032 -0.9791 0.9791 0.2032 -782.4028 932.3618)" class="st0" cx="181.7" cy="946.9" rx="1.2" ry="1.2"/>
</g>
<g>
	
		<ellipse transform="matrix(0.2032 -0.9791 0.9791 0.2032 -794.407 770.6442)" class="st0" cx="76.3" cy="873.4" rx="1.2" ry="1.2"/>
</g>
<g>
	
		<ellipse transform="matrix(0.2032 -0.9791 0.9791 0.2032 -506.5615 564.4434)" class="st0" cx="93.5" cy="593.5" rx="1.2" ry="1.2"/>
</g>
<g>
	
		<ellipse transform="matrix(0.2032 -0.9791 0.9791 0.2032 -439.955 548.9495)" class="st0" cx="117.3" cy="544.8" rx="1.2" ry="1.2"/>
</g>
<g>
	
		<ellipse transform="matrix(0.2032 -0.9791 0.9791 0.2032 -472.6445 478.236)" class="st0" cx="57.5" cy="529.5" rx="1.2" ry="1.2"/>
</g>
<g>
	
		<ellipse transform="matrix(0.2032 -0.9791 0.9791 0.2032 -916.5821 813.0085)" class="st0" cx="41.2" cy="969.7" rx="1.2" ry="1.2"/>
</g>
<g>
	
		<ellipse transform="matrix(0.2032 -0.9791 0.9791 0.2032 -126.5919 1170.3945)" class="st0" cx="655.8" cy="663" rx="1.2" ry="1.2"/>
</g>
<g>
	
		<ellipse transform="matrix(0.2032 -0.9791 0.9791 0.2032 -239.1278 1309.1326)" class="st0" cx="684.8" cy="801.5" rx="1.2" ry="1.2"/>
</g>
<g>
	
		<ellipse transform="matrix(0.2032 -0.9791 0.9791 0.2032 -376.7463 849.1887)" class="st0" cx="333.4" cy="656.1" rx="1.2" ry="1.2"/>
</g>
<g>
	
		<ellipse transform="matrix(0.2032 -0.9791 0.9791 0.2032 -274.672 1251.2076)" class="st0" cx="631.4" cy="794.4" rx="1.2" ry="1.2"/>
</g>
<g>
	
		<ellipse transform="matrix(0.2032 -0.9791 0.9791 0.2032 -307.3734 1238.6781)" class="st0" cx="607.4" cy="808.2" rx="1.2" ry="1.2"/>
</g>
<g>
	
		<ellipse transform="matrix(0.2032 -0.9791 0.9791 0.2032 -355.4516 1233.5608)" class="st0" cx="580.2" cy="835.2" rx="1.2" ry="1.2"/>
</g>
<g>
	
		<ellipse transform="matrix(0.2032 -0.9791 0.9791 0.2032 -716.272 1386.6923)" class="st0" cx="493.9" cy="1133.4" rx="1.2" ry="1.2"/>
</g>
<g>
	
		<ellipse transform="matrix(0.2032 -0.9791 0.9791 0.2032 -564.0201 1554.9503)" class="st0" cx="673.4" cy="1124" rx="1.2" ry="1.2"/>
</g>
<g>
	
		<ellipse transform="matrix(0.2032 -0.9791 0.9791 0.2032 -652.7295 1527.4563)" class="st0" cx="612.1" cy="1164.8" rx="1.2" ry="1.2"/>
</g>
<g>
	
		<ellipse transform="matrix(0.2032 -0.9791 0.9791 0.2032 -617.5522 1601.697)" class="st0" cx="675.3" cy="1180.3" rx="1.2" ry="1.2"/>
</g>
<g>
	
		<ellipse transform="matrix(0.2032 -0.9791 0.9791 0.2032 -812.9142 1481.72)" class="st0" cx="503.9" cy="1240.3" rx="1.2" ry="1.2"/>
</g>
<g>
	
		<ellipse transform="matrix(0.2032 -0.9791 0.9791 0.2032 -719.7654 1099.8317)" class="st0" cx="315.9" cy="992.2" rx="1.2" ry="1.2"/>
</g>
<g>
	
		<ellipse transform="matrix(0.2032 -0.9791 0.9791 0.2032 97.3353 719.1588)" class="st0" cx="490.5" cy="299.8" rx="1.2" ry="1.2"/>
</g>
<g>
	
		<ellipse transform="matrix(0.2032 -0.9791 0.9791 0.2032 257.3806 736.6395)" class="st0" cx="581.3" cy="210.2" rx="1.2" ry="1.2"/>
</g>
<g>
	
		<ellipse transform="matrix(0.2032 -0.9791 0.9791 0.2032 -291.662 654.2612)" class="st0" cx="256.2" cy="506.3" rx="1.2" ry="1.2"/>
</g>
<g>
	
		<ellipse transform="matrix(0.2032 -0.9791 0.9791 0.2032 -567.6426 670.864)" class="st0" cx="128.4" cy="684.2" rx="2.4" ry="2.4"/>
</g>
<g>
	
		<ellipse transform="matrix(0.2032 -0.9791 0.9791 0.2032 -80.7426 1157.5548)" class="st0" cx="670.9" cy="628.4" rx="2.4" ry="2.4"/>
</g>
<g>
	<ellipse transform="matrix(0.2032 -0.9791 0.9791 0.2032 87.0347 1061.9709)" class="st0" cx="696" cy="477.5" rx="2.4" ry="2.4"/>
</g>
<g>
	<ellipse transform="matrix(0.2032 -0.9791 0.9791 0.2032 -475.178 668.0185)" class="st0" cx="172.9" cy="626" rx="2.4" ry="2.4"/>
</g>
<g>
	
		<ellipse transform="matrix(0.2032 -0.9791 0.9791 0.2032 -85.8107 165.5049)" class="st0" cx="58.8" cy="135.5" rx="2.4" ry="2.4"/>
</g>
<g>
	
		<ellipse transform="matrix(0.2032 -0.9791 0.9791 0.2032 70.0066 419.0184)" class="st0" cx="292.5" cy="166.5" rx="2.4" ry="2.4"/>
</g>
<g>
	
		<ellipse transform="matrix(0.2032 -0.9791 0.9791 0.2032 166.5968 295.5812)" class="st0" cx="264.9" cy="45.4" rx="2.4" ry="2.4"/>
</g>
<g>
	
		<ellipse transform="matrix(0.2032 -0.9791 0.9791 0.2032 -419.9501 467.8252)" class="st0" cx="77.5" cy="491.9" rx="2.4" ry="2.4"/>
</g>
<g>
	
		<ellipse transform="matrix(0.2032 -0.9791 0.9791 0.2032 -546.6759 796.2163)" class="st0" cx="215.9" cy="734" rx="2.4" ry="2.4"/>
</g>
<g>
	
		<ellipse transform="matrix(0.2032 -0.9791 0.9791 0.2032 -675.5544 1516.8608)" class="st0" cx="594.2" cy="1173.5" rx="2.4" ry="2.4"/>
</g>
<g>
	<ellipse transform="matrix(0.2032 -0.9791 0.9791 0.2032 -36.2161 753.7598)" class="st0" cx="445" cy="399.1" rx="3.5" ry="3.5"/>
</g>
<g>
	
		<ellipse transform="matrix(0.2032 -0.9791 0.9791 0.2032 -180.6874 906.0829)" class="st0" cx="466.4" cy="564.1" rx="3.4" ry="3.4"/>
</g>
<g>
	
		<ellipse transform="matrix(0.2032 -0.9791 0.9791 0.2032 -82.9119 817.6149)" class="st0" cx="460.9" cy="459.8" rx="3.4" ry="3.4"/>
</g>
<g>
	
		<ellipse transform="matrix(0.2032 -0.9791 0.9791 0.2032 -157.3943 833.0511)" class="st0" cx="433.1" cy="513.2" rx="2.4" ry="2.4"/>
</g>
<g>
	
		<ellipse transform="matrix(0.2032 -0.9791 0.9791 0.2032 -182.9662 781.8256)" class="st0" cx="388.9" cy="503.3" rx="1.2" ry="1.2"/>
</g>
<g>
	
		<ellipse transform="matrix(0.2032 -0.9791 0.9791 0.2032 64.2883 919.1957)" class="st0" cx="596.9" cy="420.1" rx="1.2" ry="1.2"/>
</g>
<g>
	
		<ellipse transform="matrix(0.2032 -0.9791 0.9791 0.2032 39.9388 917.5192)" class="st0" cx="583.7" cy="434.2" rx="1.2" ry="1.2"/>
</g>
<g>
	<ellipse transform="matrix(0.2032 -0.9791 0.9791 0.2032 81.6434 849.8256)" class="st0" cx="563" cy="374.7" rx="1.2" ry="1.2"/>
</g>
<g>
	
		<ellipse transform="matrix(0.2032 -0.9791 0.9791 0.2032 29.3986 1075.2942)" class="st0" cx="675.4" cy="519.6" rx="1.2" ry="1.2"/>
</g>
<g>
	
		<ellipse transform="matrix(0.2032 -0.9791 0.9791 0.2032 -292.8077 1076.5143)" class="st0" cx="515" cy="718.2" rx="1.2" ry="1.2"/>
</g>
<g>
	
		<ellipse transform="matrix(0.2032 -0.9791 0.9791 0.2032 -304.9821 914.743)" class="st0" cx="409.5" cy="644.8" rx="1.2" ry="1.2"/>
</g>
<g>
	
		<ellipse transform="matrix(0.2032 -0.9791 0.9791 0.2032 -5.3833 703.9556)" class="st0" cx="429.8" cy="355.3" rx="1.2" ry="1.2"/>
</g>
<g>
	
		<ellipse transform="matrix(0.2032 -0.9791 0.9791 0.2032 -120.974 803.7881)" class="st0" cx="433.4" cy="476.2" rx="2.4" ry="2.4"/>
</g>
<g>
	<ellipse transform="matrix(0.2032 -0.9791 0.9791 0.2032 19.948 806.049)" class="st0" cx="505.2" cy="390.8" rx="2.4" ry="2.4"/>
</g>
<g>
	
		<ellipse transform="matrix(0.2032 -0.9791 0.9791 0.2032 -96.3408 1068.7158)" class="st0" cx="608.5" cy="593.6" rx="2.4" ry="2.4"/>
</g>
<g>
	
		<ellipse transform="matrix(0.9976 -6.912921e-02 6.912921e-02 0.9976 -25.8226 22.0099)" class="st0" cx="305.1" cy="384.1" rx="3.5" ry="3.5"/>
</g>
<g>
	
		<ellipse transform="matrix(0.9976 -6.912921e-02 6.912921e-02 0.9976 -14.1243 14.6563)" class="st0" cx="204.7" cy="211.4" rx="3.4" ry="3.4"/>
</g>
<g>
	
		<ellipse transform="matrix(0.9976 -6.912921e-02 6.912921e-02 0.9976 -19.404 16.8808)" class="st0" cx="234.2" cy="288.8" rx="3.4" ry="3.4"/>
</g>
<g>
	
		<ellipse transform="matrix(0.9976 -6.912921e-02 6.912921e-02 0.9976 -16.9991 19.9815)" class="st0" cx="280.2" cy="255.6" rx="2.4" ry="2.4"/>
</g>
<g>
	
		<ellipse transform="matrix(0.9976 -6.912921e-02 6.912921e-02 0.9976 -16.718 23.1067)" class="st0" cx="325.5" cy="253.1" rx="1.2" ry="1.2"/>
</g>
<g>
	
		<ellipse transform="matrix(0.9976 -6.912921e-02 6.912921e-02 0.9976 -19.4667 15.0765)" class="st0" cx="208.1" cy="288.8" rx="1.2" ry="1.2"/>
</g>
<g>
	
		<ellipse transform="matrix(0.9976 -6.912921e-02 6.912921e-02 0.9976 -22.2203 14.1061)" class="st0" cx="192.7" cy="328.1" rx="1.2" ry="1.2"/>
</g>
<g>
	
		<ellipse transform="matrix(0.9976 -6.912921e-02 6.912921e-02 0.9976 -18.6237 17.2277)" class="st0" cx="239.6" cy="277.7" rx="1.2" ry="1.2"/>
</g>
<g>
	
		<ellipse transform="matrix(0.9976 -6.912921e-02 6.912921e-02 0.9976 -26.5725 11.1422)" class="st0" cx="147.7" cy="389.5" rx="1.2" ry="1.2"/>
</g>
<g>
	
		<ellipse transform="matrix(0.9976 -6.912921e-02 6.912921e-02 0.9976 -25.3621 11.7161)" class="st0" cx="156.6" cy="372.3" rx="1.2" ry="1.2"/>
</g>
<g>
	
		<ellipse transform="matrix(0.9976 -6.912921e-02 6.912921e-02 0.9976 -28.8498 14.3357)" class="st0" cx="192.7" cy="424" rx="1.2" ry="1.2"/>
</g>
<g>
	
		<ellipse transform="matrix(0.9976 -6.912921e-02 6.912921e-02 0.9976 -22.174 4.8372)" class="st0" cx="58.8" cy="322.8" rx="1.2" ry="1.2"/>
</g>
<g>
	
		<ellipse transform="matrix(0.9976 -6.912921e-02 6.912921e-02 0.9976 -5.2086 10.2853)" class="st0" cx="146" cy="80.4" rx="1.2" ry="1.2"/>
</g>
<g>
	
		<ellipse transform="matrix(0.9976 -6.912921e-02 6.912921e-02 0.9976 -7.8353 18.7784)" class="st0" cx="267.4" cy="122.6" rx="1.2" ry="1.2"/>
</g>
<g>
	
		<ellipse transform="matrix(0.9976 -6.912921e-02 6.912921e-02 0.9976 -27.3347 23.5159)" class="st0" cx="326.1" cy="406.7" rx="1.2" ry="1.2"/>
</g>
<g>
	
		<ellipse transform="matrix(0.9976 -6.912921e-02 6.912921e-02 0.9976 -19.4362 20.7509)" class="st0" cx="290.1" cy="291.2" rx="2.4" ry="2.4"/>
</g>
<g>
	
		<ellipse transform="matrix(0.9976 -6.912921e-02 6.912921e-02 0.9976 -27.1922 16.4236)" class="st0" cx="223.7" cy="401.1" rx="2.4" ry="2.4"/>
</g>
<g>
	
		<ellipse transform="matrix(0.9976 -6.912921e-02 6.912921e-02 0.9976 -14.6139 7.7037)" class="st0" cx="104" cy="215" rx="2.4" ry="2.4"/>
</g>
</svg>
