<svg width="296" height="94" viewBox="0 0 296 94" fill="none" xmlns="http://www.w3.org/2000/svg">
<g clip-path="url(#clip0_1928_30273)">
<path d="M19.2227 34.8545C18.9508 37.1534 19.5905 39.3237 21.0298 40.9634C22.517 42.6032 24.612 43.5195 26.9629 43.5195H29.6336V35.7709C29.6336 34.6616 30.5292 33.7614 31.6326 33.7614C32.7361 33.7614 33.6316 34.6616 33.6316 35.7709V45.4969C33.6316 46.6061 32.7201 47.5386 31.6326 47.5386H26.9629C25.2677 47.5386 23.5885 47.1849 21.9733 46.5097C20.4381 45.8184 19.1267 44.8538 18.0552 43.616C16.9837 42.4103 16.1841 40.9956 15.6884 39.4362C15.1766 37.8125 15.0327 36.1245 15.2246 34.4205C15.5604 31.5911 16.9198 28.9707 19.0627 27.0255C21.2057 25.0964 23.9883 24.0354 26.8669 24.0354H31.6326C32.7361 24.0354 33.6316 24.9356 33.6316 26.0449C33.6316 27.1541 32.7361 28.0544 31.6326 28.0544H26.8669C22.9808 28.0544 19.6864 30.9802 19.2386 34.8706L19.2227 34.8545ZM51.8948 27.0094C49.7518 25.0803 46.9851 24.0354 44.0906 24.0354H39.3249C38.2214 24.0354 37.3258 24.9356 37.3258 26.0449C37.3258 27.1541 38.2214 28.0544 39.3249 28.0544H44.0906C47.9767 28.0544 51.2711 30.9802 51.7188 34.8706C51.9907 37.1695 51.351 39.3398 49.9117 40.9795C48.4244 42.6354 46.3135 43.5356 43.9786 43.5356H41.3079V32.2984C41.3079 31.1892 40.4123 30.2889 39.3089 30.2889C38.2054 30.2889 37.3098 31.1892 37.3098 32.2984V45.513C37.3098 46.6222 38.2214 47.5546 39.3089 47.5546H43.9786C45.6738 47.5546 47.353 47.201 48.9682 46.5097C50.5034 45.8184 51.8148 44.8538 52.8703 43.6321C53.9418 42.4103 54.7414 41.0117 55.2371 39.4362C55.7489 37.8125 55.8928 36.1245 55.7009 34.4205C55.3651 31.5911 54.0057 28.9707 51.8628 27.0094H51.8948ZM70.9895 35.8191C70.9895 55.3194 55.0932 71.1221 35.4867 71.1221C15.8803 71.1221 0 55.3033 0 35.803C0 16.3028 15.8963 0.5 35.5027 0.5C55.1092 0.5 71.0055 16.3028 71.0055 35.803L70.9895 35.8191ZM64.6885 35.8191C64.6885 19.6144 51.6229 6.46422 35.4867 6.46422C19.3506 6.46422 6.30093 19.5984 6.30093 35.803C6.30093 52.0077 19.3666 65.1579 35.5027 65.1579C51.6389 65.1579 64.7045 52.0238 64.7045 35.803L64.6885 35.8191Z" fill="white"/>
<path d="M122.322 33.1026C124.433 33.1026 126.416 32.3791 127.999 31.0287C128.255 32.3148 129.535 33.1026 130.446 33.1026C131.934 33.1026 133.021 32.0094 133.021 30.4982V22.2834C133.021 16.0619 128.319 11.1748 122.338 11.1748C116.357 11.1748 111.352 16.0459 111.352 22.2834C111.352 28.5209 116.181 33.0865 122.338 33.0865L122.322 33.1026ZM122.322 16.3031C125.425 16.3031 127.951 18.9878 127.951 22.2834C127.951 25.579 125.537 27.9743 122.322 27.9743C119.108 27.9743 116.405 25.4182 116.405 22.2834C116.405 19.1485 119.124 16.3031 122.322 16.3031Z" fill="white"/>
<path d="M139.148 33.0699C140.54 33.0699 141.659 31.9124 141.659 30.4977V19.9357C141.659 17.9101 143.322 16.2543 145.353 16.2543C147.384 16.2543 149.015 17.9101 149.015 19.9357V30.4977C149.015 31.9124 150.167 33.0699 151.574 33.0699C152.982 33.0699 154.085 31.9124 154.085 30.4977V19.9357C154.085 17.9101 155.748 16.2543 157.779 16.2543C159.81 16.2543 161.473 17.9101 161.473 19.9357V30.4977C161.473 31.9124 162.609 33.0699 163.984 33.0699C165.359 33.0699 166.543 31.9124 166.543 30.4977V20.3055C166.543 20.3055 166.543 20.1769 166.543 20.1126C166.543 20.0483 166.543 19.984 166.543 19.9357C166.543 15.0968 162.609 11.1582 157.779 11.1582C155.428 11.1582 153.189 12.1067 151.574 13.7786C149.943 12.1067 147.72 11.1582 145.369 11.1582C140.54 11.1582 136.605 15.0968 136.605 19.9357V30.4977C136.605 31.9445 137.725 33.0699 139.164 33.0699H139.148Z" fill="white"/>
<path d="M180.345 33.0222H180.456C182.024 33.0222 184.151 32.9901 186.853 31.1574C188.117 30.3215 188.581 28.9711 188.021 27.7814C187.685 27.0902 187.045 26.5757 186.326 26.3828C185.718 26.2221 185.094 26.3025 184.582 26.64C182.823 27.7815 181.336 27.9261 180.249 27.9261C178.042 27.9261 176.043 26.64 175.067 24.6627H188.517C189.924 24.6627 191.075 23.5213 191.075 22.1227C191.075 15.0331 185.494 11.207 180.249 11.207C174.284 11.207 169.422 16.1102 169.422 22.1227C169.422 28.1351 174.284 33.0383 180.345 33.0383V33.0222ZM180.249 16.3031C182.088 16.3031 184.471 17.2516 185.51 19.6148H175.083C176.059 17.6535 178.058 16.3031 180.249 16.3031Z" fill="white"/>
<path d="M99.8071 7.97539H105.9C107.307 7.97539 108.459 6.81792 108.459 5.40322C108.459 3.98853 107.307 2.83105 105.9 2.83105H99.8071C96.1289 2.83105 92.5946 4.18144 89.8439 6.64108C87.1093 9.13287 85.3821 12.4928 84.9503 16.0938C84.6944 18.2801 84.9023 20.4343 85.542 22.5082C86.1817 24.5016 87.1892 26.3021 88.5646 27.8454C89.9239 29.4209 91.5871 30.6587 93.5541 31.5268C95.6011 32.411 97.7441 32.8451 99.919 32.8451H105.884C107.275 32.8451 108.443 31.6554 108.443 30.2407V17.83C108.443 16.4153 107.291 15.2578 105.884 15.2578C104.477 15.2578 103.325 16.4153 103.325 17.83V27.7168H99.919C96.9285 27.7168 94.2418 26.5593 92.3547 24.4534C90.5156 22.3635 89.7 19.5984 90.0518 16.6565C90.6435 11.705 94.8335 7.95932 99.8071 7.95932V7.97539Z" fill="white"/>
<path d="M145.816 38.3594C144.425 38.3594 143.306 39.4847 143.306 40.8833V46.8636H140.843C139.451 46.8636 138.332 47.9889 138.332 49.3876C138.332 50.7862 139.451 51.9597 140.843 51.9597H143.306V66.171C143.306 67.5857 144.425 68.7431 145.816 68.7431C147.208 68.7431 148.375 67.5857 148.375 66.171V51.9597H150.806C152.213 51.9597 153.365 50.8022 153.365 49.3876C153.365 47.9729 152.213 46.8636 150.806 46.8636H148.375V40.8833C148.375 39.4847 147.224 38.3594 145.816 38.3594Z" fill="white"/>
<path d="M120.246 53.4549C120.246 55.2876 120.95 56.9756 122.197 58.1974C123.461 59.4674 125.14 60.1586 126.947 60.1586C126.995 60.1586 127.091 60.1586 127.331 60.1586C127.331 60.1586 130.465 60.1908 130.529 60.1908C131.409 60.1908 132.128 60.9142 132.128 61.7984C132.128 62.6826 131.409 63.406 130.529 63.406H123.061C121.653 63.406 120.502 64.5635 120.502 65.9782C120.502 67.3929 121.653 68.5021 123.061 68.5021H130.529C134.207 68.5021 137.198 65.4959 137.198 61.7984C137.198 59.9657 136.51 58.2938 135.247 57.056C133.983 55.7859 132.32 55.0947 130.545 55.0947C130.497 55.0947 127.091 55.0625 126.931 55.0464C126.051 55.0464 125.332 54.323 125.332 53.4388C125.332 52.5547 126.019 51.9438 126.931 51.9438H127.059H133.536C134.943 51.9438 136.094 50.7863 136.094 49.3716C136.094 47.9569 134.943 46.8477 133.536 46.8477H126.931C123.189 46.8477 120.262 49.7413 120.262 53.4388L120.246 53.4549Z" fill="white"/>
<path d="M164.655 46.751C158.69 46.751 153.828 51.6381 153.828 57.6345V66.1709C153.828 67.5855 154.98 68.743 156.387 68.743C157.794 68.743 158.898 67.5855 158.898 66.1709V57.6345C158.898 54.4514 161.472 51.8471 164.655 51.8471C166.062 51.8471 167.214 50.6896 167.214 49.2749C167.214 47.8602 166.062 46.751 164.655 46.751Z" fill="white"/>
<path d="M174.796 66.1703V49.2261C174.796 47.8275 173.677 46.7021 172.285 46.7021C170.894 46.7021 169.727 47.8435 169.727 49.2261V66.1703C169.727 67.6171 170.846 68.7424 172.285 68.7424C173.725 68.7424 174.796 67.5849 174.796 66.1703Z" fill="white"/>
<path d="M172.282 43.8246C173.018 43.8246 173.722 43.5353 174.217 43.0369C174.713 42.5385 175.001 41.8312 175.001 41.0917C175.001 40.3522 174.713 39.6449 174.217 39.1465C173.706 38.6321 172.97 38.3105 172.282 38.3105C171.595 38.3105 170.859 38.616 170.347 39.1465C169.835 39.6609 169.516 40.4004 169.516 41.0917C169.516 41.783 169.819 42.5225 170.347 43.0369C170.843 43.5353 171.547 43.8246 172.282 43.8246Z" fill="white"/>
<path d="M246.472 66.1703V49.2261C246.472 47.8275 245.352 46.7021 243.961 46.7021C242.57 46.7021 241.402 47.8435 241.402 49.2261V66.1703C241.402 67.6171 242.522 68.7424 243.961 68.7424C245.4 68.7424 246.472 67.5849 246.472 66.1703Z" fill="white"/>
<path d="M243.962 43.8246C244.698 43.8246 245.401 43.5353 245.897 43.0369C246.393 42.5385 246.681 41.8312 246.681 41.0917C246.681 40.3522 246.393 39.6449 245.897 39.1465C245.385 38.6321 244.65 38.3105 243.962 38.3105C243.274 38.3105 242.539 38.616 242.027 39.1465C241.515 39.6609 241.195 40.4004 241.195 41.0917C241.195 41.783 241.499 42.5225 242.027 43.0369C242.523 43.5353 243.226 43.8246 243.962 43.8246Z" fill="white"/>
<path d="M114.41 46.6387C113.003 46.6387 111.852 47.7801 111.852 49.1626V66.155C111.852 67.6019 112.971 68.7272 114.41 68.7272C115.85 68.7272 116.921 67.5697 116.921 66.155V49.1626C116.921 47.764 115.786 46.6387 114.41 46.6387Z" fill="white"/>
<path d="M116.358 39.1465C115.846 38.6321 115.111 38.3105 114.423 38.3105C113.735 38.3105 113 38.616 112.488 39.1465C111.976 39.6609 111.656 40.4004 111.656 41.0917C111.656 41.783 111.96 42.5225 112.488 43.0369C112.984 43.5353 113.687 43.8246 114.423 43.8246C115.159 43.8246 115.862 43.5353 116.358 43.0369C116.854 42.5385 117.142 41.8312 117.142 41.0917C117.142 40.3522 116.854 39.6449 116.358 39.1465Z" fill="white"/>
<path d="M189.124 46.7509C187.093 46.7509 185.078 47.3297 183.366 48.4068V40.8189C183.366 39.4202 182.247 38.2949 180.856 38.2949C179.464 38.2949 178.297 39.4363 178.297 40.8189V57.747C178.297 63.8076 183.159 68.743 189.124 68.743C195.089 68.743 199.95 63.8719 199.95 57.6505C199.95 51.4291 195.089 46.767 189.124 46.767V46.7509ZM189.124 63.6308C185.957 63.6308 183.366 60.9782 183.366 57.7309V57.5862C183.366 54.4192 185.941 51.847 189.124 51.847C192.306 51.847 194.881 54.4353 194.881 57.6344C194.881 60.9943 192.354 63.6469 189.124 63.6469V63.6308Z" fill="white"/>
<path d="M211.784 68.7269C216.614 68.7269 220.596 64.7722 220.628 59.869V49.2749C220.628 47.8763 219.493 46.751 218.117 46.751C216.742 46.751 215.559 47.8924 215.559 49.2749V59.8369C215.559 61.9268 213.863 63.6308 211.784 63.6308C209.705 63.6308 208.042 61.9268 208.042 59.8369V49.2749C208.042 47.8763 206.891 46.751 205.483 46.751C204.076 46.751 202.973 47.8924 202.973 49.2749V59.9173C203.021 64.7722 206.971 68.7269 211.784 68.7269Z" fill="white"/>
<path d="M235.966 46.8636H233.535V40.8833C233.535 39.4847 232.384 38.3594 230.977 38.3594C229.569 38.3594 228.466 39.4847 228.466 40.8833V46.8636H226.003C224.612 46.8636 223.492 47.9889 223.492 49.3876C223.492 50.7862 224.612 51.9597 226.003 51.9597H228.466V66.171C228.466 67.5857 229.585 68.7431 230.977 68.7431C232.368 68.7431 233.535 67.5857 233.535 66.171V51.9597H235.966C237.373 51.9597 238.525 50.8022 238.525 49.3876C238.525 47.9729 237.373 46.8636 235.966 46.8636Z" fill="white"/>
<path d="M260.256 68.7269C266.126 68.7269 271.083 63.6469 271.083 57.6345C271.083 51.622 266.222 46.751 260.256 46.751C254.291 46.751 249.43 51.6381 249.43 57.6345C249.43 63.6308 254.387 68.7269 260.256 68.7269ZM260.256 51.8471C263.423 51.8471 266.014 54.4353 266.014 57.6345C266.014 60.8336 263.375 63.6469 260.256 63.6469C257.138 63.6469 254.499 60.8979 254.499 57.6345C254.499 54.371 257.074 51.8471 260.256 51.8471Z" fill="white"/>
<path d="M284.979 46.751C279.014 46.751 274.152 51.6381 274.152 57.6345V66.1709C274.152 67.5855 275.288 68.743 276.663 68.743C278.038 68.743 279.222 67.6177 279.222 66.1709V57.6345C279.222 54.4514 281.797 51.8471 284.979 51.8471C288.162 51.8471 290.736 54.4353 290.736 57.6345V66.1709C290.736 67.5855 291.856 68.743 293.247 68.743C294.638 68.743 295.806 67.6177 295.806 66.1709V57.6345C295.806 51.6381 290.944 46.751 284.979 46.751Z" fill="white"/>
<path d="M87.6997 68.5174H93.6648C95.8398 68.5174 97.9827 68.0673 100.03 67.1992C101.981 66.331 103.66 65.0771 105.019 63.5177C106.395 61.9744 107.402 60.1739 108.042 58.1644C108.682 56.0906 108.889 53.9364 108.634 51.7501C108.218 48.149 106.475 44.7891 103.74 42.2973C101.005 39.8377 97.455 38.4873 93.7768 38.4873H87.6838C86.2764 38.4873 85.125 39.6448 85.125 41.0595C85.125 42.4742 86.2764 43.6316 87.6838 43.6316H93.7768C98.7504 43.6316 102.94 47.3774 103.532 52.3288C103.884 55.2707 103.068 58.0358 101.229 60.1257C99.3261 62.2316 96.6394 63.3891 93.6648 63.3891H90.2585V49.21C90.2585 47.7953 89.1071 46.6379 87.6997 46.6379C86.2924 46.6379 85.141 47.7953 85.141 49.21V65.9131C85.141 67.3278 86.3084 68.5174 87.6997 68.5174Z" fill="white"/>
<path d="M274.44 75.4944C274.248 75.3015 273.976 75.1729 273.704 75.1729C273.432 75.1729 273.16 75.3015 272.968 75.4944C272.776 75.6873 272.648 75.9606 272.648 76.2339C272.648 76.5072 272.776 76.7805 272.968 76.9734C273.16 77.1663 273.432 77.2627 273.704 77.2627C273.976 77.2627 274.248 77.1663 274.44 76.9734C274.631 76.7805 274.727 76.5072 274.727 76.2339C274.727 75.9606 274.631 75.6873 274.44 75.4944Z" fill="#868786"/>
<path d="M254.642 79.6745C254.482 79.3208 254.146 79.1279 253.779 79.1279H247.862C247.35 79.1279 246.918 79.562 246.918 80.0764C246.918 80.5909 247.35 81.041 247.862 81.041H251.892L247.126 87.1981C246.902 87.4875 246.854 87.8733 247.03 88.2109C247.19 88.5324 247.526 88.7575 247.893 88.7575H253.811C254.322 88.7575 254.754 88.3074 254.754 87.7929C254.754 87.2785 254.338 86.8605 253.811 86.8444H249.781L254.546 80.6552C254.77 80.3658 254.818 79.98 254.642 79.6584V79.6745Z" fill="#868786"/>
<path d="M260 79.144C257.346 79.144 255.219 81.2821 255.219 83.9507C255.219 86.6194 257.346 88.7575 260 88.7575C260.704 88.7575 261.664 88.7736 262.927 87.9376C263.375 87.6482 263.615 87.1499 263.391 86.6676C263.167 86.2175 262.511 85.9924 262.079 86.2818C261.168 86.8766 260.384 86.9087 259.952 86.9087C258.673 86.9087 257.666 86.0246 257.266 84.8832H263.839C264.382 84.8832 264.798 84.4491 264.798 83.9347C264.798 80.8159 262.319 79.1279 260.016 79.1279L260 79.144ZM257.266 83.0987C257.57 81.9252 258.737 80.9928 260 80.9928C261.136 80.9928 262.399 81.6036 262.767 83.0987H257.266Z" fill="#868786"/>
<path d="M270.664 79.1596C268.042 79.1596 265.883 81.2977 265.883 83.9664V87.8085C265.883 88.323 266.299 88.7731 266.842 88.7731C267.386 88.7731 267.786 88.323 267.786 87.8085V83.9664C267.786 82.3587 269.081 81.0566 270.68 81.0566C271.224 81.0566 271.64 80.6065 271.64 80.092C271.64 79.5776 271.208 79.1435 270.68 79.1596H270.664Z" fill="#868786"/>
<path d="M273.706 79.1596C273.162 79.1596 272.746 79.5937 272.746 80.1081V87.8086C272.746 88.3551 273.162 88.7731 273.706 88.7731C274.217 88.7731 274.649 88.3551 274.649 87.8086V80.092C274.649 79.5776 274.217 79.1436 273.706 79.1436V79.1596Z" fill="#868786"/>
<path d="M285.313 83.9503C285.313 81.2817 283.186 79.1436 280.532 79.1436C277.877 79.1436 275.75 81.2817 275.75 83.9503C275.75 86.6189 277.893 88.757 280.532 88.757C283.17 88.757 285.313 86.5868 285.313 83.9503ZM277.637 83.9503C277.637 82.3105 278.932 80.9923 280.532 80.9923C282.131 80.9923 283.426 82.3105 283.426 83.9503C283.426 85.5901 282.131 86.9083 280.532 86.9083C278.932 86.9083 277.637 85.574 277.637 83.9503Z" fill="#868786"/>
<path d="M291.204 79.1436C288.581 79.1436 286.422 81.2817 286.422 83.9503V87.7925C286.422 88.3391 286.854 88.757 287.365 88.757C287.909 88.757 288.325 88.3391 288.325 87.7925V83.9503C288.325 82.3427 289.572 80.9923 291.172 80.9923C292.771 80.9923 294.114 82.3427 294.114 83.9503V87.7925C294.114 88.3391 294.546 88.757 295.058 88.757C295.601 88.757 296.017 88.3391 296.017 87.7925V83.9503C296.017 81.2817 293.858 79.1436 291.22 79.1436H291.204Z" fill="#868786"/>
<path d="M236.301 84.0147C236.301 86.7155 238.428 88.725 241.114 88.725C242.122 88.725 243.113 88.3391 243.849 87.5675C243.881 87.5353 243.929 87.5514 243.929 87.5996C243.929 87.5996 243.929 87.7926 243.929 87.8086C243.929 88.3552 244.473 88.725 244.841 88.725C245.4 88.725 245.8 88.3231 245.8 87.7604V84.0147C245.8 81.3139 243.801 79.1758 241.114 79.1758C238.428 79.1758 236.301 81.3139 236.301 84.0147ZM241.114 81.0567C242.714 81.0567 243.929 82.4231 243.929 84.0147C243.929 85.6062 242.714 86.8441 241.114 86.8441C239.515 86.8441 238.172 85.6223 238.172 84.0147C238.172 82.4071 239.531 81.0567 241.114 81.0567Z" fill="#868786"/>
<path d="M211.16 75.3821V83.9024C211.16 86.5549 213.303 88.6931 215.91 88.6931C218.517 88.6931 220.66 86.5389 220.66 83.9185C220.66 81.2981 218.533 79.1439 215.91 79.1439C214.822 79.1439 213.831 79.4976 213.031 80.1084V75.366C213.031 74.8516 212.615 74.4336 212.104 74.4336C211.592 74.4336 211.16 74.8516 211.16 75.366V75.3821ZM213.031 83.9024C213.031 82.3269 214.327 81.0248 215.91 81.0248C217.493 81.0248 218.788 82.3269 218.788 83.9185C218.788 85.51 217.509 86.8122 215.91 86.8122C214.311 86.8122 213.031 85.5261 213.031 83.9185V83.9024Z" fill="#868786"/>
<path d="M222.693 79.2568C222.181 79.2568 221.766 79.6748 221.766 80.1892V84.9317C221.782 87.0376 223.653 88.7417 225.732 88.7417C226.451 88.7417 227.267 88.5488 227.843 88.2112V89.5777C227.843 90.703 226.931 91.6193 225.796 91.6193C225.028 91.6193 224.324 91.1853 223.957 90.4779C223.749 90.0278 223.173 89.8188 222.725 90.0439C222.245 90.2689 222.069 90.8477 222.293 91.2978C222.949 92.6482 224.292 93.5002 225.796 93.5002C227.955 93.5002 229.714 91.7319 229.714 89.5777V80.1892C229.714 79.6748 229.298 79.2568 228.77 79.2568C228.242 79.2568 227.843 79.6748 227.843 80.1892V84.9156C227.843 85.9927 226.819 86.8769 225.732 86.8769C224.644 86.8769 223.621 86.0088 223.621 84.9156V80.1892C223.621 79.6748 223.205 79.2568 222.693 79.2568Z" fill="#868786"/>
</g>
<defs>
<clipPath id="clip0_1928_30273">
<rect width="296" height="93" fill="white" transform="translate(0 0.5)"/>
</clipPath>
</defs>
</svg>
