<svg width="69" height="69" viewBox="0 0 69 69" fill="none" xmlns="http://www.w3.org/2000/svg">
<g id="Clip path group">
<mask id="mask0_1536_10185" style="mask-type:luminance" maskUnits="userSpaceOnUse" x="0" y="0" width="69" height="69">
<g id="clippath">
<path id="Vector" d="M18.6371 33.1891C18.3717 35.4202 18.9949 37.5126 20.3912 39.0848C21.8337 40.6801 23.8763 41.5587 26.1381 41.5587H28.7346V34.0793C28.7346 33.0042 29.6001 32.1372 30.6734 32.1372C31.7466 32.1372 32.6121 33.0042 32.6121 34.0793V43.4661C32.6121 44.5412 31.7235 45.4429 30.6734 45.4429H26.1381C24.4879 45.4429 22.8608 45.1076 21.3029 44.4371C19.8142 43.7667 18.5333 42.8303 17.5062 41.6511C16.4676 40.4836 15.6944 39.1195 15.2097 37.6051C14.7135 36.0329 14.5635 34.4029 14.7597 32.7498C15.0828 30.0217 16.3984 27.4784 18.4756 25.5941C20.5643 23.7329 23.2416 22.7157 26.0343 22.7157H30.6618C31.735 22.7157 32.6005 23.5827 32.6005 24.6578C32.6005 25.7328 31.735 26.5999 30.6618 26.5999H26.0343C22.2607 26.5999 19.0756 29.4321 18.6256 33.1776L18.6371 33.1891ZM50.3144 25.6057C48.2372 23.7445 45.5484 22.7272 42.7557 22.7272H38.1282C37.055 22.7272 36.1895 23.5942 36.1895 24.6693C36.1895 25.7444 37.055 26.6114 38.1282 26.6114H42.7557C46.5293 26.6114 49.7144 29.4437 50.1644 33.1891C50.4299 35.4202 49.8067 37.5126 48.4103 39.0848C46.9678 40.6801 44.9253 41.5587 42.6634 41.5587H40.0785V30.7037C40.0785 29.6286 39.213 28.7616 38.1397 28.7616C37.0665 28.7616 36.201 29.6286 36.201 30.7037V43.4661C36.201 44.5412 37.0896 45.4429 38.1397 45.4429H42.6634C44.3136 45.4429 45.9408 45.1076 47.4987 44.4371C48.9873 43.7782 50.2568 42.8418 51.2838 41.6511C52.3224 40.472 53.0956 39.1195 53.5803 37.6051C54.065 36.0329 54.2265 34.4029 54.0303 32.7498C53.7072 30.0217 52.3916 27.4784 50.3144 25.5941V25.6057ZM68.8246 34.1139C68.8246 52.957 53.4187 68.2279 34.4123 68.2279C15.4059 68.2279 0 52.957 0 34.1139C0 15.2709 15.4059 0 34.4123 0C53.4187 0 68.8246 15.2709 68.8246 34.1139ZM62.72 34.1139C62.72 18.45 50.049 5.75694 34.4123 5.75694C18.7756 5.75694 6.10467 18.45 6.10467 34.1139C6.10467 49.7779 18.7756 62.4709 34.4123 62.4709C50.049 62.4709 62.72 49.7779 62.72 34.1139Z" fill="white"/>
</g>
</mask>
<g mask="url(#mask0_1536_10185)">
<g id="Group">
<g id="Group_2">
<path id="Vector_2" d="M40.7243 47.6967C59.6086 47.6967 74.9174 32.3613 74.9174 13.4441C74.9174 -5.47315 59.6086 -20.8086 40.7243 -20.8086C21.84 -20.8086 6.53125 -5.47315 6.53125 13.4441C6.53125 32.3613 21.84 47.6967 40.7243 47.6967Z" fill="#00BEBE"/>
<path id="Vector_3" d="M51.7341 78.0073C70.6184 78.0073 85.9271 62.6718 85.9271 43.7546C85.9271 24.8374 70.6184 9.50195 51.7341 9.50195C32.8498 9.50195 17.541 24.8374 17.541 43.7546C17.541 62.6718 32.8498 78.0073 51.7341 78.0073Z" fill="#FFBE00"/>
<path id="Vector_4" d="M21.4753 89.0356C40.3596 89.0356 55.6683 73.7002 55.6683 54.7829C55.6683 35.8657 40.3596 20.5303 21.4753 20.5303C2.59098 20.5303 -12.7178 35.8657 -12.7178 54.7829C-12.7178 73.7002 2.59098 89.0356 21.4753 89.0356Z" fill="#FF5726"/>
<path id="Vector_5" d="M10.4665 58.7255C29.3508 58.7255 44.6595 43.3901 44.6595 24.4729C44.6595 5.55566 29.3508 -9.77979 10.4665 -9.77979C-8.41781 -9.77979 -23.7266 5.55566 -23.7266 24.4729C-23.7266 43.3901 -8.41781 58.7255 10.4665 58.7255Z" fill="#3B21CC"/>
</g>
</g>
</g>
</g>
</svg>
