<svg width="297" height="93" viewBox="0 0 297 93" fill="none" xmlns="http://www.w3.org/2000/svg">
<mask id="mask0_653_7598" style="mask-type:luminance" maskUnits="userSpaceOnUse" x="0" y="0" width="69" height="69">
<path d="M18.6371 33.1891C18.3716 35.4202 18.9948 37.5126 20.3911 39.0848C21.8336 40.6801 23.8762 41.5587 26.138 41.5587H28.7345V34.0793C28.7345 33.0042 29.6 32.1372 30.6732 32.1372C31.7465 32.1372 32.612 33.0042 32.612 34.0793V43.4661C32.612 44.5412 31.7234 45.4429 30.6732 45.4429H26.138C24.4878 45.4429 22.8607 45.1076 21.3028 44.4371C19.8141 43.7667 18.5332 42.8303 17.5061 41.6511C16.4675 40.4836 15.6944 39.1195 15.2097 37.6051C14.7135 36.0329 14.5634 34.4029 14.7596 32.7498C15.0827 30.0217 16.3983 27.4784 18.4755 25.5941C20.5642 23.7329 23.2415 22.7157 26.0342 22.7157H30.6617C31.7349 22.7157 32.6004 23.5827 32.6004 24.6578C32.6004 25.7328 31.7349 26.5999 30.6617 26.5999H26.0342C22.2606 26.5999 19.0756 29.4321 18.6255 33.1776L18.6371 33.1891ZM50.3143 25.6057C48.2371 23.7445 45.5483 22.7272 42.7556 22.7272H38.1281C37.0549 22.7272 36.1894 23.5942 36.1894 24.6693C36.1894 25.7444 37.0549 26.6114 38.1281 26.6114H42.7556C46.5292 26.6114 49.7142 29.4437 50.1643 33.1891C50.4297 35.4202 49.8065 37.5126 48.4102 39.0848C46.9677 40.6801 44.9251 41.5587 42.6633 41.5587H40.0783V30.7037C40.0783 29.6286 39.2128 28.7616 38.1396 28.7616C37.0664 28.7616 36.2009 29.6286 36.2009 30.7037V43.4661C36.2009 44.5412 37.0895 45.4429 38.1396 45.4429H42.6633C44.3135 45.4429 45.9406 45.1076 47.4985 44.4371C48.9872 43.7782 50.2566 42.8418 51.2836 41.6511C52.3222 40.472 53.0954 39.1195 53.5801 37.6051C54.0648 36.0329 54.2263 34.4029 54.0301 32.7498C53.707 30.0217 52.3915 27.4784 50.3143 25.5941V25.6057ZM68.8244 34.1139C68.8244 52.957 53.4185 68.2279 34.4122 68.2279C15.4059 68.2279 0 52.957 0 34.1139C0 15.2709 15.4059 0 34.4122 0C53.4185 0 68.8244 15.2709 68.8244 34.1139ZM62.7197 34.1139C62.7197 18.45 50.0489 5.75694 34.4122 5.75694C18.7755 5.75694 6.10465 18.45 6.10465 34.1139C6.10465 49.7779 18.7755 62.4709 34.4122 62.4709C50.0489 62.4709 62.7197 49.7779 62.7197 34.1139Z" fill="white"/>
</mask>
<g mask="url(#mask0_653_7598)">
<path d="M40.7242 47.6967C59.6084 47.6967 74.9171 32.3613 74.9171 13.4441C74.9171 -5.47315 59.6084 -20.8086 40.7242 -20.8086C21.8399 -20.8086 6.53125 -5.47315 6.53125 13.4441C6.53125 32.3613 21.8399 47.6967 40.7242 47.6967Z" fill="#00BEBE"/>
<path d="M51.732 78.0073C70.6162 78.0073 85.9249 62.6718 85.9249 43.7546C85.9249 24.8374 70.6162 9.50195 51.732 9.50195C32.8478 9.50195 17.5391 24.8374 17.5391 43.7546C17.5391 62.6718 32.8478 78.0073 51.732 78.0073Z" fill="#FFBE00"/>
<path d="M21.4742 89.0356C40.3584 89.0356 55.6671 73.7002 55.6671 54.7829C55.6671 35.8657 40.3584 20.5303 21.4742 20.5303C2.58995 20.5303 -12.7188 35.8657 -12.7188 54.7829C-12.7188 73.7002 2.58995 89.0356 21.4742 89.0356Z" fill="#FF5726"/>
<path d="M10.4664 58.7255C29.3506 58.7255 44.6593 43.3901 44.6593 24.4729C44.6593 5.55566 29.3506 -9.77979 10.4664 -9.77979C-8.41787 -9.77979 -23.7266 5.55566 -23.7266 24.4729C-23.7266 43.3901 -8.41787 58.7255 10.4664 58.7255Z" fill="#3B21CC"/>
</g>
<path d="M118.61 31.5016C120.653 31.5016 122.58 30.7964 124.115 29.5017C124.357 30.7386 125.604 31.5016 126.481 31.5016C127.923 31.5016 128.973 30.4496 128.973 28.993V21.0628C128.973 15.0515 124.415 10.335 118.61 10.335C112.806 10.335 107.959 15.0515 107.959 21.0628C107.959 27.074 112.633 31.5016 118.61 31.5016ZM118.61 15.2711C121.622 15.2711 124.069 17.8606 124.069 21.0512C124.069 24.2418 121.726 26.5538 118.61 26.5538C115.495 26.5538 112.875 24.0915 112.875 21.0512C112.875 18.0109 115.506 15.2711 118.61 15.2711Z" fill="#3B21CC"/>
<path d="M134.913 31.4664C136.252 31.4664 137.348 30.3566 137.348 28.981V18.7734C137.348 16.8197 138.952 15.2244 140.937 15.2244C142.922 15.2244 144.48 16.8197 144.48 18.7734V28.981C144.48 30.3451 145.588 31.4664 146.961 31.4664C148.334 31.4664 149.396 30.3566 149.396 28.981V18.7734C149.396 16.8197 151 15.2244 152.985 15.2244C154.97 15.2244 156.574 16.8197 156.574 18.7734V28.981C156.574 30.3451 157.67 31.4664 159.009 31.4664C160.347 31.4664 161.49 30.3566 161.49 28.981V19.1317C161.49 19.0739 161.49 19.0161 161.478 18.9468C161.49 18.8774 161.49 18.8196 161.49 18.7734C161.49 14.1031 157.681 10.2998 152.996 10.2998C150.711 10.2998 148.553 11.2131 146.972 12.8315C145.391 11.2246 143.233 10.2998 140.948 10.2998C136.263 10.2998 132.455 14.1031 132.455 18.7734V28.981C132.455 30.3682 133.54 31.4664 134.936 31.4664H134.913Z" fill="#3B21CC"/>
<path d="M174.864 31.4205H174.967C176.479 31.4205 178.545 31.3858 181.176 29.6171C182.399 28.8195 182.849 27.5016 182.295 26.3456C181.972 25.6867 181.349 25.178 180.657 24.9815C180.057 24.8196 179.456 24.9006 178.972 25.2243C177.275 26.3225 175.833 26.4727 174.771 26.4727C172.636 26.4727 170.698 25.2242 169.751 23.3168H182.792C184.153 23.3168 185.273 22.2186 185.273 20.8661C185.273 14.0109 179.86 10.3232 174.783 10.3232C169.001 10.3232 164.293 15.0513 164.293 20.8661C164.293 26.6808 169.001 31.4089 174.887 31.4089L174.864 31.4205ZM174.771 15.271C176.56 15.271 178.868 16.1842 179.86 18.4731H169.751C170.698 16.5773 172.636 15.271 174.76 15.271H174.771Z" fill="#3B21CC"/>
<path d="M96.7741 7.23648H102.683C104.044 7.23648 105.164 6.12671 105.164 4.75105C105.164 3.3754 104.056 2.26562 102.683 2.26562H96.7741C93.2082 2.26562 89.7808 3.57192 87.1151 5.94175C84.4609 8.34625 82.7876 11.5946 82.3722 15.0742C82.1298 17.1782 82.326 19.2706 82.9492 21.2705C83.5608 23.201 84.5532 24.935 85.8803 26.4379C87.1959 27.9522 88.823 29.1545 90.7271 29.9984C92.712 30.8423 94.7892 31.27 96.901 31.27H102.683C104.021 31.27 105.164 30.114 105.164 28.7499V16.762C105.164 15.3979 104.056 14.2766 102.683 14.2766C101.309 14.2766 100.201 15.3864 100.201 16.762V26.3107H96.8895C93.9929 26.3107 91.3849 25.1894 89.55 23.1548C87.7729 21.1433 86.9766 18.4614 87.3113 15.6176C87.8767 10.8317 91.9388 7.21336 96.7625 7.21336L96.7741 7.23648Z" fill="#3B21CC"/>
<path d="M141.388 36.5762C140.049 36.5762 138.953 37.6744 138.953 39.0154V44.7954H136.564C135.225 44.7954 134.129 45.8936 134.129 47.2346C134.129 48.5756 135.225 49.72 136.564 49.72H138.953V63.4419C138.953 64.806 140.049 65.9273 141.388 65.9273C142.726 65.9273 143.869 64.8176 143.869 63.4419V49.72H146.223C147.585 49.72 148.704 48.6103 148.704 47.2346C148.704 45.859 147.596 44.7954 146.223 44.7954H143.869V39.0154C143.869 37.6744 142.761 36.5762 141.388 36.5762Z" fill="#3B21CC"/>
<path d="M116.586 51.1649C116.586 52.9336 117.267 54.5636 118.478 55.7427C119.702 56.9681 121.329 57.6386 123.083 57.6386C123.141 57.6386 123.233 57.6386 123.452 57.6386C123.452 57.6386 126.487 57.6732 126.556 57.6732C127.41 57.6732 128.103 58.3668 128.103 59.2223C128.103 60.0777 127.41 60.7829 126.556 60.7829H119.321C117.959 60.7829 116.84 61.8927 116.84 63.2683C116.84 64.644 117.948 65.7075 119.321 65.7075H126.556C130.122 65.7075 133.019 62.8059 133.019 59.2339C133.019 57.4652 132.35 55.8467 131.115 54.656C129.892 53.4307 128.276 52.7602 126.545 52.7602C126.499 52.7602 123.187 52.7255 123.048 52.7139C122.194 52.7139 121.502 52.0203 121.502 51.1533C121.502 50.2863 122.171 49.7083 123.048 49.7083H123.175H129.453C130.815 49.7083 131.934 48.5985 131.934 47.2229C131.934 45.8472 130.826 44.7837 129.453 44.7837H123.048C119.425 44.7837 116.586 47.5812 116.586 51.1533V51.1649Z" fill="#3B21CC"/>
<path d="M159.644 44.6912C153.863 44.6912 149.154 49.4078 149.154 55.1994V63.4418C149.154 64.8059 150.262 65.9272 151.635 65.9272C153.009 65.9272 154.07 64.8174 154.07 63.4418V55.1994C154.07 52.1129 156.574 49.6043 159.656 49.6043C161.017 49.6043 162.137 48.4945 162.137 47.1189C162.137 45.7432 161.029 44.6797 159.656 44.6797L159.644 44.6912Z" fill="#3B21CC"/>
<path d="M169.486 63.4426V47.0735C169.486 45.7325 168.39 44.6343 167.051 44.6343C165.713 44.6343 164.57 45.7325 164.57 47.0735V63.4426C164.57 64.8298 165.655 65.928 167.051 65.928C168.448 65.928 169.486 64.8183 169.486 63.4426Z" fill="#3B21CC"/>
<path d="M167.052 41.8595C167.768 41.8595 168.449 41.5821 168.933 41.0965C169.418 40.611 169.695 39.929 169.695 39.2122C169.695 38.4955 169.418 37.8134 168.933 37.3279C168.437 36.8308 167.733 36.5303 167.052 36.5303C166.371 36.5303 165.667 36.8308 165.171 37.3279C164.675 37.825 164.375 38.5302 164.375 39.2122C164.375 39.8943 164.675 40.5879 165.171 41.0965C165.656 41.5821 166.337 41.8595 167.052 41.8595Z" fill="#3B21CC"/>
<path d="M238.971 63.4426V47.0735C238.971 45.7325 237.874 44.6343 236.536 44.6343C235.197 44.6343 234.055 45.7325 234.055 47.0735V63.4426C234.055 64.8298 235.139 65.928 236.536 65.928C237.932 65.928 238.971 64.8183 238.971 63.4426Z" fill="#3B21CC"/>
<path d="M236.533 41.8595C237.248 41.8595 237.929 41.5821 238.414 41.0965C238.898 40.611 239.175 39.929 239.175 39.2122C239.175 38.4955 238.898 37.8134 238.414 37.3279C237.918 36.8308 237.214 36.5303 236.533 36.5303C235.852 36.5303 235.148 36.8308 234.652 37.3279C234.156 37.825 233.855 38.5302 233.855 39.2122C233.855 39.8943 234.156 40.5879 234.652 41.0965C235.136 41.5821 235.817 41.8595 236.533 41.8595Z" fill="#3B21CC"/>
<path d="M110.934 44.5874C109.572 44.5874 108.453 45.6856 108.453 47.0266V63.442C108.453 64.8292 109.538 65.9274 110.934 65.9274C112.331 65.9274 113.369 64.8176 113.369 63.442V47.0266C113.369 45.6856 112.273 44.5874 110.934 44.5874Z" fill="#3B21CC"/>
<path d="M112.814 37.3392C112.318 36.8421 111.614 36.5415 110.933 36.5415C110.252 36.5415 109.548 36.8421 109.052 37.3392C108.556 37.8362 108.256 38.5414 108.256 39.2235C108.256 39.9055 108.556 40.5991 109.052 41.1078C109.537 41.5933 110.218 41.8707 110.933 41.8707C111.649 41.8707 112.329 41.5933 112.814 41.1078C113.299 40.6222 113.576 39.9402 113.576 39.2235C113.576 38.5067 113.299 37.8247 112.814 37.3392Z" fill="#3B21CC"/>
<path d="M183.371 44.6914C181.397 44.6914 179.447 45.2579 177.785 46.2867V38.946C177.785 37.605 176.689 36.5068 175.35 36.5068C174.012 36.5068 172.869 37.605 172.869 38.946V55.3036C172.869 61.1646 177.577 65.9274 183.359 65.9274C189.141 65.9274 193.849 61.2108 193.849 55.1996C193.849 49.1883 189.141 44.6914 183.359 44.6914H183.371ZM183.371 61.0027C180.289 61.0027 177.785 58.448 177.785 55.3036V55.1533C177.785 52.0899 180.289 49.6045 183.371 49.6045C186.452 49.6045 188.956 52.113 188.956 55.1996C188.956 58.448 186.509 61.0027 183.371 61.0027Z" fill="#3B21CC"/>
<path d="M205.342 65.9274C210.027 65.9274 213.882 62.1125 213.916 57.3729V47.1306C213.916 45.7896 212.82 44.6914 211.481 44.6914C210.143 44.6914 209 45.7896 209 47.1306V57.3382C209 59.3612 207.35 61.0143 205.331 61.0143C203.311 61.0143 201.707 59.3728 201.707 57.3382V47.1306C201.707 45.7896 200.599 44.6914 199.226 44.6914C197.853 44.6914 196.791 45.7896 196.791 47.1306V57.4191C196.837 62.1125 200.668 65.9274 205.331 65.9274H205.342Z" fill="#3B21CC"/>
<path d="M228.779 44.8071H226.425V39.0271C226.425 37.6861 225.317 36.5879 223.944 36.5879C222.571 36.5879 221.509 37.6861 221.509 39.0271V44.8071H219.12C217.782 44.8071 216.686 45.9054 216.686 47.2463C216.686 48.5873 217.782 49.7318 219.12 49.7318H221.509V63.4536C221.509 64.8177 222.606 65.9391 223.944 65.9391C225.283 65.9391 226.425 64.8293 226.425 63.4536V49.7318H228.779C230.141 49.7318 231.261 48.622 231.261 47.2463C231.261 45.8707 230.153 44.8071 228.779 44.8071Z" fill="#3B21CC"/>
<path d="M252.343 65.9274C258.033 65.9274 262.833 61.0143 262.833 55.1996C262.833 49.3848 258.125 44.6914 252.343 44.6914C246.562 44.6914 241.854 49.4079 241.854 55.1996C241.854 60.9912 246.654 65.9274 252.343 65.9274ZM252.343 49.616C255.425 49.616 257.929 52.1246 257.929 55.2111C257.929 58.2977 255.378 61.0143 252.343 61.0143C249.308 61.0143 246.758 58.3555 246.758 55.2111C246.758 52.0668 249.262 49.616 252.343 49.616Z" fill="#3B21CC"/>
<path d="M276.302 44.6914C270.521 44.6914 265.812 49.4079 265.812 55.1996V63.4419C265.812 64.806 266.909 65.9274 268.247 65.9274C269.586 65.9274 270.729 64.8407 270.729 63.4419V55.1996C270.729 52.113 273.233 49.6045 276.314 49.6045C279.395 49.6045 281.899 52.113 281.899 55.1996V63.4419C281.899 64.806 282.996 65.9274 284.334 65.9274C285.673 65.9274 286.815 64.8407 286.815 63.4419V55.1996C286.815 49.4079 282.107 44.6914 276.325 44.6914H276.302Z" fill="#3B21CC"/>
<path d="M85.0376 65.7078H90.8191C92.9309 65.7078 95.0081 65.2801 96.993 64.4246C98.8855 63.5808 100.513 62.3785 101.828 60.8641C103.155 59.3613 104.148 57.6273 104.759 55.6967C105.383 53.6853 105.579 51.6045 105.336 49.5005C104.932 46.0209 103.248 42.7725 100.593 40.368C97.9392 37.9982 94.5119 36.6919 90.9345 36.6919H85.026C83.6643 36.6919 82.5449 37.8017 82.5449 39.1773C82.5449 40.553 83.6528 41.6627 85.026 41.6627H90.9345C95.7582 41.6627 99.8203 45.2695 100.386 50.067C100.72 52.9108 99.9357 55.5927 98.1585 57.5926C96.3236 59.6272 93.7156 60.7485 90.8191 60.7485H87.5071V47.0498C87.5071 45.6857 86.3993 44.5643 85.026 44.5643C83.6528 44.5643 82.5449 45.6741 82.5449 47.0498V63.1877C82.5449 64.5518 83.6758 65.7078 85.026 65.7078H85.0376Z" fill="#3B21CC"/>
<path d="M266.088 72.4586C265.904 72.2621 265.638 72.1465 265.373 72.1465C265.107 72.1465 264.842 72.2737 264.657 72.4586C264.461 72.6436 264.346 72.9095 264.346 73.1753C264.346 73.4412 264.473 73.7071 264.657 73.8921C264.842 74.077 265.107 74.1695 265.373 74.1695C265.638 74.1695 265.904 74.0655 266.088 73.8921C266.273 73.7071 266.365 73.4412 266.365 73.1753C266.365 72.9095 266.261 72.6436 266.088 72.4586Z" fill="#868786"/>
<path d="M246.886 76.4933C246.736 76.1581 246.401 75.9731 246.055 75.9731H240.32C239.812 75.9731 239.408 76.3893 239.408 76.8864C239.408 77.3835 239.824 77.8112 240.32 77.8112H244.232L239.616 83.7647C239.397 84.0421 239.362 84.412 239.524 84.7357C239.674 85.0478 240.008 85.2559 240.354 85.2559H246.09C246.598 85.2559 247.002 84.8282 247.002 84.3311C247.002 83.834 246.598 83.4294 246.09 83.4179H242.178L246.794 77.4413C247.013 77.1638 247.048 76.7939 246.886 76.4818V76.4933Z" fill="#868786"/>
<path d="M252.079 75.9842C249.505 75.9842 247.451 78.0535 247.451 80.6198C247.451 83.1862 249.517 85.2554 252.079 85.2554C252.76 85.2554 253.694 85.267 254.918 84.4578C255.345 84.1803 255.587 83.6948 255.368 83.2324C255.148 82.7931 254.514 82.585 254.098 82.8625C253.21 83.4405 252.46 83.4752 252.033 83.4752C250.798 83.4752 249.817 82.6313 249.425 81.5215H255.795C256.314 81.5215 256.718 81.1053 256.718 80.6083C256.718 77.5911 254.317 75.9727 252.09 75.9727L252.079 75.9842ZM249.425 79.7991C249.725 78.6662 250.844 77.7645 252.079 77.7645C253.187 77.7645 254.41 78.354 254.756 79.7991H249.425Z" fill="#868786"/>
<path d="M262.43 76.008C259.891 76.008 257.803 78.0773 257.803 80.6437V84.3545C257.803 84.8631 258.207 85.2793 258.726 85.2793C259.245 85.2793 259.638 84.8515 259.638 84.3545V80.6437C259.638 79.083 260.895 77.8345 262.442 77.8345C262.961 77.8345 263.365 77.4068 263.365 76.9097C263.365 76.4127 262.95 75.9965 262.43 76.008Z" fill="#868786"/>
<path d="M265.372 75.9961C264.853 75.9961 264.449 76.4123 264.449 76.9093V84.3541C264.449 84.8743 264.853 85.2789 265.372 85.2904C265.88 85.2904 266.284 84.8858 266.284 84.3656V76.9093C266.284 76.4007 265.869 75.9961 265.372 75.9961Z" fill="#868786"/>
<path d="M276.636 80.62C276.636 78.0421 274.57 75.9844 272.008 75.9844C269.447 75.9844 267.381 78.0536 267.381 80.62C267.381 83.1863 269.458 85.2556 272.008 85.2556C274.559 85.2556 276.636 83.1632 276.636 80.62ZM269.193 80.62C269.193 79.0363 270.45 77.7646 271.997 77.7646C273.543 77.7646 274.801 79.0363 274.801 80.62C274.801 82.2037 273.543 83.4753 271.997 83.4753C270.45 83.4753 269.193 82.1806 269.193 80.62Z" fill="#868786"/>
<path d="M282.337 75.9844C279.798 75.9844 277.709 78.0536 277.709 80.62V84.3308C277.709 84.851 278.124 85.2556 278.621 85.2556C279.14 85.2556 279.544 84.851 279.544 84.3308V80.62C279.544 79.0594 280.756 77.7646 282.313 77.7646C283.871 77.7646 285.164 79.0594 285.164 80.62V84.3308C285.164 84.851 285.579 85.2556 286.075 85.2556C286.595 85.2556 286.999 84.851 286.999 84.3308V80.62C286.999 78.0421 284.91 75.9844 282.348 75.9844H282.337Z" fill="#868786"/>
<path d="M229.115 80.6897C229.115 83.3022 231.181 85.2328 233.789 85.2328C234.77 85.2328 235.728 84.8629 236.443 84.1115C236.478 84.0768 236.512 84.0883 236.512 84.1461C236.512 84.1577 236.512 84.3311 236.512 84.3427C236.512 84.8629 237.032 85.2328 237.401 85.2328C237.932 85.2328 238.324 84.8398 238.324 84.308V80.6897C238.324 78.0771 236.385 76.0078 233.789 76.0078C231.192 76.0078 229.115 78.0771 229.115 80.6897ZM233.789 77.8228C235.335 77.8228 236.524 79.1406 236.524 80.6897C236.524 82.2387 235.347 83.4294 233.789 83.4294C232.231 83.4294 230.927 82.2503 230.927 80.6897C230.927 79.129 232.243 77.8228 233.789 77.8228Z" fill="#868786"/>
<path d="M204.73 72.3548V80.6087C204.73 83.152 206.807 85.2212 209.335 85.2212C211.862 85.2212 213.939 83.1404 213.939 80.6087C213.939 78.0771 211.885 75.9963 209.335 75.9963C208.285 75.9963 207.315 76.3431 206.542 76.9326V72.3548C206.542 71.8577 206.138 71.4531 205.642 71.4531C205.146 71.4531 204.719 71.8577 204.719 72.3548H204.73ZM206.542 80.5972C206.542 79.0713 207.788 77.8228 209.335 77.8228C210.881 77.8228 212.127 79.0713 212.127 80.6203C212.127 82.1694 210.881 83.4179 209.335 83.4179C207.788 83.4179 206.542 82.1694 206.542 80.6203V80.5972Z" fill="#868786"/>
<path d="M215.912 76.1001C215.416 76.1001 215.012 76.5047 215.012 77.0018V81.6027C215.035 83.6257 216.835 85.2673 218.855 85.2673C219.558 85.2673 220.355 85.0823 220.897 84.7471V86.0765C220.897 87.1631 220.02 88.0417 218.912 88.0417C218.162 88.0417 217.481 87.614 217.135 86.9435C216.927 86.5042 216.385 86.2961 215.946 86.5158C215.485 86.7354 215.3 87.2903 215.519 87.7296C216.166 89.0359 217.47 89.8682 218.912 89.8682C221.001 89.8682 222.709 88.1573 222.709 86.0765V77.0133C222.709 76.5163 222.305 76.1117 221.786 76.1117C221.266 76.1117 220.886 76.5163 220.886 77.0133V81.5796C220.886 82.6316 219.882 83.4755 218.843 83.4755C217.804 83.4755 216.8 82.6316 216.8 81.5796V77.0133C216.8 76.5163 216.397 76.1117 215.9 76.1117L215.912 76.1001Z" fill="#868786"/>
</svg>
