<svg width="72" height="72" viewBox="0 0 72 72" fill="none" xmlns="http://www.w3.org/2000/svg">
<path id="Vector" d="M19.2227 34.8545C18.9508 37.1534 19.5905 39.3237 21.0298 40.9634C22.517 42.6032 24.612 43.5195 26.9629 43.5195H29.6336V35.7709C29.6336 34.6616 30.5292 33.7614 31.6326 33.7614C32.7361 33.7614 33.6316 34.6616 33.6316 35.7709V45.4969C33.6316 46.6061 32.7201 47.5386 31.6326 47.5386H26.9629C25.2677 47.5386 23.5885 47.1849 21.9733 46.5097C20.4381 45.8184 19.1267 44.8538 18.0552 43.616C16.9837 42.4103 16.1841 40.9956 15.6884 39.4362C15.1766 37.8125 15.0327 36.1245 15.2246 34.4205C15.5604 31.5911 16.9198 28.9707 19.0627 27.0255C21.2057 25.0964 23.9883 24.0354 26.8669 24.0354H31.6326C32.7361 24.0354 33.6316 24.9356 33.6316 26.0449C33.6316 27.1541 32.7361 28.0544 31.6326 28.0544H26.8669C22.9808 28.0544 19.6864 30.9802 19.2386 34.8706L19.2227 34.8545ZM51.8948 27.0094C49.7518 25.0803 46.9851 24.0354 44.0906 24.0354H39.3249C38.2214 24.0354 37.3258 24.9356 37.3258 26.0449C37.3258 27.1541 38.2214 28.0544 39.3249 28.0544H44.0906C47.9767 28.0544 51.2711 30.9802 51.7188 34.8706C51.9907 37.1695 51.351 39.3398 49.9117 40.9795C48.4244 42.6354 46.3135 43.5356 43.9786 43.5356H41.3079V32.2984C41.3079 31.1892 40.4123 30.2889 39.3089 30.2889C38.2054 30.2889 37.3098 31.1892 37.3098 32.2984V45.513C37.3098 46.6222 38.2214 47.5546 39.3089 47.5546H43.9786C45.6738 47.5546 47.353 47.201 48.9682 46.5097C50.5034 45.8184 51.8148 44.8538 52.8703 43.6321C53.9418 42.4103 54.7414 41.0117 55.2371 39.4362C55.7489 37.8125 55.8928 36.1245 55.7009 34.4205C55.3651 31.5911 54.0057 28.9707 51.8628 27.0094H51.8948ZM70.9895 35.8191C70.9895 55.3194 55.0932 71.1221 35.4867 71.1221C15.8803 71.1221 0 55.3033 0 35.803C0 16.3028 15.8963 0.5 35.5027 0.5C55.1092 0.5 71.0055 16.3028 71.0055 35.803L70.9895 35.8191ZM64.6885 35.8191C64.6885 19.6144 51.6229 6.46422 35.4867 6.46422C19.3506 6.46422 6.30093 19.5984 6.30093 35.803C6.30093 52.0077 19.3666 65.1579 35.5027 65.1579C51.6389 65.1579 64.7045 52.0238 64.7045 35.803L64.6885 35.8191Z" fill="white"/>
</svg>
